<?xml version="1.0" encoding="utf-8"?>
<!-- Generator: Adobe Illustrator 16.0.0, SVG Export Plug-In . SVG Version: 6.00 Build 0)  -->
<!DOCTYPE svg PUBLIC "-//W3C//DTD SVG 1.1//EN" "http://www.w3.org/Graphics/SVG/1.1/DTD/svg11.dtd">
<svg version="1.1" id="Layer_1" xmlns="http://www.w3.org/2000/svg" xmlns:xlink="http://www.w3.org/1999/xlink" x="0px" y="0px"
	 width="219.525px" height="344.666px" viewBox="0 0 219.525 344.666" enable-background="new 0 0 219.525 344.666"
	 xml:space="preserve">
<g>
	<defs>
		<rect id="SVGID_1_" x="2.333" y="8.333" width="214.859" height="328"/>
	</defs>
	<clipPath id="SVGID_2_">
		<use xlink:href="#SVGID_1_"  overflow="visible"/>
	</clipPath>
	<path clip-path="url(#SVGID_2_)" fill="none" stroke="#629FB2" stroke-miterlimit="10" d="M188.396,336.104H31.13
		c-15.778,0-28.569-12.79-28.569-28.568V44.595c0-15.778,12.791-28.569,28.569-28.569h157.266c15.777,0,28.568,12.791,28.568,28.569
		v262.94C216.964,323.314,204.173,336.104,188.396,336.104z"/>
	<path clip-path="url(#SVGID_2_)" fill="none" stroke="#62A0B3" stroke-miterlimit="10" d="M35.787,24.671L35.787,24.671
		c-1.936,0-3.505-1.568-3.505-3.505v-9.101c0-1.936,1.569-3.505,3.505-3.505s3.504,1.569,3.504,3.505v9.101
		C39.292,23.103,37.723,24.671,35.787,24.671z"/>
	<path clip-path="url(#SVGID_2_)" fill="none" stroke="#62A0B3" stroke-miterlimit="10" d="M60.627,24.671L60.627,24.671
		c-1.935,0-3.504-1.568-3.504-3.505v-9.101c0-1.936,1.569-3.505,3.504-3.505c1.936,0,3.505,1.569,3.505,3.505v9.101
		C64.132,23.103,62.563,24.671,60.627,24.671z"/>
	<path clip-path="url(#SVGID_2_)" fill="none" stroke="#62A0B3" stroke-miterlimit="10" d="M85.469,24.671L85.469,24.671
		c-1.936,0-3.505-1.568-3.505-3.505v-9.101c0-1.936,1.569-3.505,3.505-3.505c1.936,0,3.504,1.569,3.504,3.505v9.101
		C88.973,23.103,87.404,24.671,85.469,24.671z"/>
	<path clip-path="url(#SVGID_2_)" fill="none" stroke="#62A0B3" stroke-miterlimit="10" d="M110.31,24.671L110.31,24.671
		c-1.936,0-3.505-1.568-3.505-3.505v-9.101c0-1.936,1.569-3.505,3.505-3.505s3.504,1.569,3.504,3.505v9.101
		C113.813,23.103,112.245,24.671,110.31,24.671z"/>
	<path clip-path="url(#SVGID_2_)" fill="none" stroke="#62A0B3" stroke-miterlimit="10" d="M135.149,24.671L135.149,24.671
		c-1.936,0-3.504-1.568-3.504-3.505v-9.101c0-1.936,1.568-3.505,3.504-3.505s3.506,1.569,3.506,3.505v9.101
		C138.655,23.103,137.085,24.671,135.149,24.671z"/>
	<path clip-path="url(#SVGID_2_)" fill="none" stroke="#62A0B3" stroke-miterlimit="10" d="M159.991,24.671L159.991,24.671
		c-1.936,0-3.505-1.568-3.505-3.505v-9.101c0-1.936,1.569-3.505,3.505-3.505s3.504,1.569,3.504,3.505v9.101
		C163.495,23.103,161.927,24.671,159.991,24.671z"/>
	<path clip-path="url(#SVGID_2_)" fill="none" stroke="#62A0B3" stroke-miterlimit="10" d="M184.831,24.671L184.831,24.671
		c-1.936,0-3.504-1.568-3.504-3.505v-9.101c0-1.936,1.568-3.505,3.504-3.505s3.505,1.569,3.505,3.505v9.101
		C188.336,23.103,186.767,24.671,184.831,24.671z"/>
</g>
</svg>
